<svg xmlns="http://www.w3.org/2000/svg" width="720" height="430" viewBox="0 0 720 430"><defs><linearGradient id="g" x1="0" x2="1"><stop stop-color="#16a34a"/><stop offset="1" stop-color="#22c55e"/></linearGradient></defs><rect width="720" height="430" rx="34" fill="#f8fbff"/><circle cx="590" cy="76" r="74" fill="#e0f8e9"/><circle cx="108" cy="338" r="84" fill="#eaf2ff"/><rect x="244" y="38" width="232" height="354" rx="34" fill="#0f172a"/><rect x="262" y="70" width="196" height="282" rx="24" fill="white"/><rect x="292" y="96" width="136" height="14" rx="7" fill="#dbe7f4"/><rect x="292" y="130" width="136" height="54" rx="16" fill="#effdf4" stroke="#bde8cc"/><rect x="292" y="202" width="136" height="54" rx="16" fill="#eef5ff" stroke="#bfd3ff"/><rect x="292" y="274" width="136" height="42" rx="16" fill="url(#g)"/><path d="M330 295l14 14 35-41" fill="none" stroke="white" stroke-width="10" stroke-linecap="round" stroke-linejoin="round"/><rect x="86" y="96" width="150" height="82" rx="22" fill="white" stroke="#dce6f2"/><text x="112" y="130" font-size="18" font-family="Arial" fill="#132033" font-weight="700">SNAP / EBT</text><text x="112" y="154" font-size="14" font-family="Arial" fill="#586a80">Eligibility signal</text><rect x="492" y="226" width="150" height="82" rx="22" fill="white" stroke="#dce6f2"/><text x="522" y="260" font-size="18" font-family="Arial" fill="#132033" font-weight="700">Provider</text><text x="522" y="284" font-size="14" font-family="Arial" fill="#586a80">Apply path</text></svg>
