<svg xmlns="http://www.w3.org/2000/svg" viewBox="0 0 900 640"><rect width="900" height="640" rx="42" fill="#eef7ff"/><circle cx="760" cy="92" r="78" fill="#d9f4ec"/><circle cx="132" cy="528" r="92" fill="#dcecff"/><rect x="110" y="96" width="320" height="448" rx="44" fill="#0b2447"/><rect x="137" y="132" width="266" height="365" rx="26" fill="#fff"/><rect x="169" y="166" width="202" height="22" rx="11" fill="#1460c8"/><rect x="169" y="214" width="202" height="46" rx="16" fill="#eef7ff"/><rect x="169" y="278" width="202" height="46" rx="16" fill="#eef7ff"/><rect x="169" y="342" width="202" height="46" rx="16" fill="#eef7ff"/><rect x="169" y="420" width="202" height="44" rx="22" fill="#0f9a71"/><path d="M516 158h210a34 34 0 0 1 34 34v266a34 34 0 0 1-34 34H516a34 34 0 0 1-34-34V192a34 34 0 0 1 34-34Z" fill="#fff" stroke="#d8e6f2" stroke-width="8"/><path d="M533 230h174M533 278h134M533 326h157" stroke="#1460c8" stroke-width="18" stroke-linecap="round" opacity=".9"/><path d="m536 406 42 42 112-132" fill="none" stroke="#0f9a71" stroke-width="26" stroke-linecap="round" stroke-linejoin="round"/></svg>