<svg xmlns="http://www.w3.org/2000/svg" viewBox="0 0 900 560"><defs><linearGradient id="a" x1="0" y1="0" x2="1" y2="1"><stop stop-color="#eff6ff"/><stop offset="1" stop-color="#dbeafe"/></linearGradient></defs><rect width="900" height="560" rx="48" fill="url(#a)"/><rect x="96" y="70" width="300" height="420" rx="38" fill="#0f172a"/><rect x="119" y="102" width="254" height="342" rx="24" fill="#ffffff"/><rect x="142" y="134" width="150" height="18" rx="9" fill="#1d4ed8"/><rect x="142" y="176" width="198" height="58" rx="16" fill="#eff6ff"/><rect x="142" y="253" width="198" height="58" rx="16" fill="#f0fdf4"/><rect x="142" y="330" width="198" height="58" rx="16" fill="#fff7ed"/><circle cx="246" cy="468" r="13" fill="#e5e7eb"/><rect x="448" y="96" width="330" height="88" rx="24" fill="#ffffff"/><rect x="486" y="126" width="210" height="16" rx="8" fill="#2563eb"/><rect x="486" y="152" width="154" height="12" rx="6" fill="#94a3b8"/><rect x="448" y="220" width="330" height="88" rx="24" fill="#ffffff"/><rect x="486" y="250" width="235" height="16" rx="8" fill="#16a34a"/><rect x="486" y="276" width="174" height="12" rx="6" fill="#94a3b8"/><rect x="448" y="344" width="330" height="88" rx="24" fill="#ffffff"/><rect x="486" y="374" width="188" height="16" rx="8" fill="#0ea5e9"/><rect x="486" y="400" width="205" height="12" rx="6" fill="#94a3b8"/></svg>