<svg xmlns="http://www.w3.org/2000/svg" width="720" height="520" viewBox="0 0 720 520" role="img" aria-label="Eligibility assistant illustration">
<defs><linearGradient id="a" x1="80" y1="10" x2="660" y2="500"><stop stop-color="#eef7ff"/><stop offset="1" stop-color="#cfe7ff"/></linearGradient><linearGradient id="b" x1="0" y1="0" x2="1" y2="1"><stop stop-color="#165ec7"/><stop offset="1" stop-color="#0b8fcc"/></linearGradient></defs>
<rect x="20" y="20" width="680" height="480" rx="42" fill="url(#a)"/>
<rect x="78" y="82" width="320" height="340" rx="30" fill="#fff" stroke="#d9e5f3" stroke-width="4"/>
<rect x="112" y="128" width="170" height="22" rx="11" fill="#0b2447"/>
<rect x="112" y="174" width="230" height="22" rx="11" fill="#d9e5f3"/>
<rect x="112" y="216" width="200" height="22" rx="11" fill="#d9e5f3"/>
<rect x="112" y="258" width="245" height="52" rx="18" fill="url(#b)"/>
<rect x="112" y="332" width="210" height="22" rx="11" fill="#d9e5f3"/>
<circle cx="514" cy="248" r="112" fill="#fff" stroke="#d9e5f3" stroke-width="4"/>
<path d="M468 252l30 30 64-78" fill="none" stroke="#147a5b" stroke-width="20" stroke-linecap="round" stroke-linejoin="round"/>
<circle cx="558" cy="118" r="42" fill="#ffdca8"/>
<circle cx="600" cy="372" r="54" fill="#cdeedd"/>
<path d="M485 400c38 34 96 32 132-2" stroke="#165ec7" stroke-width="10" fill="none" stroke-linecap="round"/>
</svg>