<svg xmlns="http://www.w3.org/2000/svg" viewBox="0 0 128 128" role="img" aria-label="Lifeline Options Assistant">
  <defs>
    <linearGradient id="bg" x1="18" x2="110" y1="12" y2="118" gradientUnits="userSpaceOnUse">
      <stop stop-color="#0b4fb3"/>
      <stop offset=".52" stop-color="#0b6bd3"/>
      <stop offset="1" stop-color="#087f5b"/>
    </linearGradient>
    <linearGradient id="card" x1="35" x2="93" y1="22" y2="105" gradientUnits="userSpaceOnUse">
      <stop stop-color="#fff"/>
      <stop offset="1" stop-color="#edf6ff"/>
    </linearGradient>
    <filter id="shadow" x="-30%" y="-30%" width="160%" height="160%">
      <feDropShadow dx="0" dy="10" stdDeviation="10" flood-color="#071426" flood-opacity=".22"/>
    </filter>
  </defs>
  <rect width="128" height="128" rx="30" fill="#071426"/>
  <path d="M64 10c18 12 36 15 48 15v39c0 28-18 46-48 56C34 110 16 92 16 64V25c12 0 30-3 48-15Z" fill="url(#bg)" filter="url(#shadow)"/>
  <path d="M45 23h38c8 0 14 6 14 14v57c0 8-6 14-14 14H45c-8 0-14-6-14-14V37c0-8 6-14 14-14Z" fill="url(#card)"/>
  <path d="M51 34h26M49 90h30" stroke="#b9c8da" stroke-width="4" stroke-linecap="round"/>
  <rect x="43" y="45" width="42" height="34" rx="10" fill="#e7f0ff"/>
  <path d="M51 56h25M51 68h17" stroke="#0b4fb3" stroke-width="5" stroke-linecap="round"/>
  <circle cx="84" cy="82" r="21" fill="#087f5b"/>
  <path d="m74 82 7 7 14-18" stroke="#fff" stroke-width="7" fill="none" stroke-linecap="round" stroke-linejoin="round"/>
  <path d="M98 43c5 5 8 12 8 19M108 34c8 8 13 18 13 30" stroke="#fff" stroke-width="5" fill="none" stroke-linecap="round" opacity=".82"/>
</svg>
